HIERARCHY
ROOT Hips
{
 OFFSET 0.000000 0.000000 0.000000
 CHANNELS 6 Xposition Yposition Zposition Yrotation Xrotation Zrotation
 JOINT Chest
 {
  OFFSET 0.000000 9.585900 0.002600
  CHANNELS 3 Yrotation Xrotation Zrotation
  JOINT Chest2
  {
   OFFSET 0.000000 9.601200 -0.005300
   CHANNELS 3 Yrotation Xrotation Zrotation
   JOINT Chest3
   {
    OFFSET 0.000000 9.561800 0.000000
    CHANNELS 3 Yrotation Xrotation Zrotation
    JOINT Chest4
    {
     OFFSET 0.000000 9.552100 0.000000
     CHANNELS 3 Yrotation Xrotation Zrotation
     JOINT Neck
     {
      OFFSET 0.000000 14.453000 0.000000
      CHANNELS 3 Yrotation Xrotation Zrotation
      JOINT Head
      {
       OFFSET 0.000000 8.936500 -0.011300
       CHANNELS 3 Yrotation Xrotation Zrotation
       End Site
       {
        OFFSET 0.000000 17.073600 -0.006000
       }
      }
     }
     JOINT RightCollar
     {
      OFFSET -2.921100 9.558500 0.000000
      CHANNELS 3 Yrotation Xrotation Zrotation
      JOINT RightShoulder
      {
       OFFSET -13.519700 0.000000 0.000000
       CHANNELS 3 Yrotation Xrotation Zrotation
       JOINT RightElbow
       {
        OFFSET 0.000000 -29.696600 0.000000
        CHANNELS 3 Yrotation Xrotation Zrotation
        JOINT RightWrist
        {
         OFFSET 0.000000 -24.004700 0.000000
         CHANNELS 3 Yrotation Xrotation Zrotation
         End Site
         {
          OFFSET 0.000000 -17.728500 0.000000
         }
        }
       }
      }
     }
     JOINT LeftCollar
     {
      OFFSET 2.921100 9.558500 0.000000
      CHANNELS 3 Yrotation Xrotation Zrotation
      JOINT LeftShoulder
      {
       OFFSET 13.519700 0.000000 0.000000
       CHANNELS 3 Yrotation Xrotation Zrotation
       JOINT LeftElbow
       {
        OFFSET 0.000000 -29.696600 0.000000
        CHANNELS 3 Yrotation Xrotation Zrotation
        JOINT LeftWrist
        {
         OFFSET 0.000000 -24.004700 0.000000
         CHANNELS 3 Yrotation Xrotation Zrotation
         End Site
         {
          OFFSET 0.000000 -17.728500 0.000000
         }
        }
       }
      }
     }
    }
   }
  }
 }
 JOINT RightHip
 {
  OFFSET -7.771700 -0.012900 -0.001300
  CHANNELS 3 Yrotation Xrotation Zrotation
  JOINT RightKnee
  {
   OFFSET 0.000000 -40.869800 0.001200
   CHANNELS 3 Yrotation Xrotation Zrotation
   JOINT RightAnkle
   {
    OFFSET 0.000000 -39.717900 0.002100
    CHANNELS 3 Yrotation Xrotation Zrotation
    JOINT RightToe
    {
     OFFSET 0.000000 -4.965400 11.033500
     CHANNELS 3 Yrotation Xrotation Zrotation
     End Site
     {
      OFFSET 0.000000 -1.423100 5.872300
     }
    }
   }
  }
 }
 JOINT LeftHip
 {
  OFFSET 7.771700 -0.012900 -0.001300
  CHANNELS 3 Yrotation Xrotation Zrotation
  JOINT LeftKnee
  {
   OFFSET 0.000000 -40.869800 0.001200
   CHANNELS 3 Yrotation Xrotation Zrotation
   JOINT LeftAnkle
   {
    OFFSET 0.000000 -39.717900 0.002100
    CHANNELS 3 Yrotation Xrotation Zrotation
    JOINT LeftToe
    {
     OFFSET 0.000000 -4.965400 11.033500
     CHANNELS 3 Yrotation Xrotation Zrotation
     End Site
     {
      OFFSET 0.000000 -1.423100 5.872300
     }
    }
   }
  }
 }
}
MOTION
Frames: 11
Frame Time: 0.008333
-43.609784 57.905653 11.955338 178.142800 -50.358718 -4.048675 3.440808 22.610391 2.949018 1.789367 12.976512 1.497315 2.298019 16.162703 1.943324 1.793341 12.976729 1.499493 0.481699 14.380932 2.090887 0.048045 -8.977575 3.726741 2.579484 3.377004 -0.605589 -8.113550 -10.307742 -7.875739 -45.516094 -41.884910 103.798989 -3.128680 -0.734086 -16.092044 -9.318375 -0.701317 0.488327 7.142747 -10.250877 7.139198 32.123681 -11.303026 -88.137168 15.410614 -8.223662 13.046162 3.948801 -21.051403 -2.449538 -34.010850 73.688556 -37.804225 5.694696 -15.147941 11.378490 -0.004797 0.014368 0.007282 -7.266947 -18.644253 5.750314 87.355935 81.022681 87.461254 0.996568 -21.594813 -18.671707 0.000817 0.000308 0.001994
-43.611089 57.906244 11.952968 178.143038 -50.335833 -4.048905 3.440232 22.609352 2.948583 1.795301 12.976558 1.499664 2.295744 16.163164 1.944675 1.793572 12.965366 1.498006 0.498307 14.354409 2.098860 0.127995 -9.134307 3.753601 2.584423 3.373951 -0.618531 -8.120237 -10.295991 -7.873933 -45.543686 -41.890040 103.841255 -3.126170 -0.723172 -16.090488 -9.320949 -0.707363 0.498151 7.151078 -10.245729 7.118276 32.099907 -11.307481 -88.116407 15.403036 -8.220675 13.028280 3.951016 -21.071889 -2.450634 -34.030486 73.687938 -37.821595 5.683694 -15.155571 11.379446 0.009572 0.012105 0.008907 -7.268178 -18.668133 5.750400 87.364908 81.019146 87.471660 0.998689 -21.591286 -18.671928 0.000215 -0.001940 0.001018
-43.611947 57.908613 11.949084 178.142493 -50.326467 -4.050037 3.446861 22.622236 2.953914 1.797959 12.974918 1.500070 2.311088 16.183979 1.952098 1.777917 12.933572 1.495792 0.499586 14.338355 2.101037 0.191920 -9.250466 3.778378 2.601819 3.385255 -0.641156 -8.143752 -10.293070 -7.856953 -45.573590 -41.896411 103.893509 -3.121109 -0.691080 -16.065000 -9.324478 -0.713427 0.507721 7.161724 -10.232123 7.097525 32.081667 -11.319409 -88.103348 15.396555 -8.216192 13.010458 3.952322 -21.078547 -2.452116 -34.029772 73.689934 -37.818043 5.692050 -15.168016 11.374504 -0.000091 0.011920 0.008891 -7.266112 -18.676196 5.748642 87.360169 81.019549 87.472424 1.004148 -21.588612 -18.673235 -0.000084 -0.004470 -0.000513
-43.612243 57.909376 11.946510 178.141083 -50.304635 -4.053145 3.454048 22.621300 2.960549 1.798194 12.968254 1.499743 2.315608 16.187855 1.954808 1.784821 12.935809 1.497720 0.516877 14.297164 2.113406 0.217670 -9.327399 3.797717 2.592781 3.369571 -0.645720 -8.137720 -10.276982 -7.863192 -45.610373 -41.898057 103.950182 -3.117466 -0.658758 -16.040819 -9.337400 -0.730486 0.517387 7.166718 -10.198546 7.070059 32.070658 -11.344284 -88.090806 15.369938 -8.204055 12.977312 3.952883 -21.098231 -2.450711 -34.032732 73.689901 -37.817621 5.691380 -15.172774 11.373114 -0.001578 0.010918 0.008420 -7.267169 -18.696937 5.755100 87.365886 81.021583 87.484538 1.002175 -21.589410 -18.675595 0.000917 -0.005794 -0.000859
-43.611880 57.910319 11.943847 178.137877 -50.283937 -4.057862 3.462423 22.619595 2.967234 1.799839 12.969118 1.501894 2.318664 16.186148 1.957473 1.798326 12.951663 1.503201 0.526797 14.239427 2.123649 0.244942 -9.401584 3.817392 2.580199 3.339324 -0.652893 -8.108244 -10.232644 -7.885457 -45.699431 -41.907185 104.046089 -3.112406 -0.633010 -16.024137 -9.356066 -0.760175 0.524210 7.165225 -10.183308 7.059114 32.034182 -11.324838 -88.058964 15.301824 -8.201914 12.895892 3.953376 -21.117621 -2.445056 -34.028290 73.691404 -37.809215 5.682938 -15.178584 11.369719 0.000859 0.012767 0.009804 -7.266892 -18.713738 5.761201 87.381328 81.022260 87.506565 1.008598 -21.595951 -18.681104 0.001618 -0.004317 -0.000242
-43.611434 57.910686 11.941634 178.135013 -50.259211 -4.062510 3.467565 22.615890 2.972101 1.805926 12.975418 1.505648 2.315598 16.168173 1.957350 1.804697 12.961949 1.507461 0.572467 14.176565 2.151810 0.247144 -9.456687 3.826718 2.584968 3.325637 -0.664515 -8.097479 -10.213084 -7.886571 -45.757201 -41.909452 104.115167 -3.101415 -0.606131 -16.001263 -9.365234 -0.774434 0.527078 7.163487 -10.173343 7.053135 32.018810 -11.318751 -88.043935 15.225864 -8.165426 12.803764 3.953088 -21.142471 -2.438541 -34.047599 73.693817 -37.827367 5.673182 -15.191071 11.364104 -0.004378 0.008869 0.011169 -7.267439 -18.735980 5.768324 87.376075 81.019176 87.516008 1.008133 -21.597241 -18.695286 0.006328 -0.004955 0.002488
-43.611466 57.908622 11.941433 178.143782 -50.215398 -4.072797 3.474997 22.622507 2.979603 1.801334 12.949595 1.507483 2.312634 16.154305 1.956386 1.810500 12.974228 1.512362 0.576091 14.143236 2.156032 0.286562 -9.543514 3.850855 2.589897 3.309224 -0.670516 -8.081334 -10.195587 -7.892606 -45.822331 -41.910789 104.190167 -3.086803 -0.579725 -15.973905 -9.374714 -0.795676 0.528037 7.158922 -10.148872 7.051325 32.009725 -11.322581 -88.032153 15.128163 -8.104866 12.679675 3.945411 -21.185520 -2.436962 -34.071134 73.696066 -37.848846 5.665763 -15.203544 11.358892 -0.002196 0.010780 0.013927 -7.276381 -18.781195 5.772264 87.396709 81.015692 87.544920 1.012463 -21.596946 -18.704808 0.005992 -0.004316 0.005310
-43.612046 57.910686 11.937775 178.145332 -50.204831 -4.072779 3.480110 22.638407 2.981952 1.802306 12.949427 1.509179 2.314301 16.151415 1.959606 1.809263 12.969803 1.511600 0.582194 14.114387 2.162057 0.327373 -9.630442 3.874380 2.616077 3.303258 -0.669971 -8.098337 -10.197087 -7.897257 -45.869473 -41.906668 104.262682 -3.075724 -0.558290 -15.947282 -9.384979 -0.800329 0.531538 7.154466 -10.123765 7.048129 32.008633 -11.339190 -88.025205 15.010163 -8.029974 12.537830 3.944861 -21.194546 -2.437950 -34.076096 73.698255 -37.858010 5.663312 -15.208930 11.361429 -0.003845 0.008678 0.013819 -7.275159 -18.792137 5.770046 87.400802 81.014834 87.553243 1.013620 -21.594599 -18.708032 0.005510 -0.007182 0.006904
-43.612904 57.910603 11.935955 178.155041 -50.177898 -4.076939 3.473267 22.625457 2.978445 1.805039 12.963156 1.511701 2.324815 16.178652 1.967037 1.796511 12.921914 1.504483 0.635548 14.075929 2.196125 0.333081 -9.695912 3.881188 2.627704 3.299951 -0.669722 -8.097547 -10.189639 -7.901091 -45.920040 -41.904623 104.341968 -3.069884 -0.540342 -15.922998 -9.393832 -0.787213 0.529674 7.156402 -10.125698 7.049577 31.998664 -11.344246 -88.005291 14.874988 -7.946119 12.389867 3.941189 -21.220660 -2.444144 -34.076978 73.710501 -37.862174 5.657086 -15.220919 11.363930 -0.005469 0.007131 0.013495 -7.280846 -18.820063 5.766162 87.399476 81.013468 87.558535 1.015383 -21.593641 -18.713158 0.006114 -0.006758 0.006938
-43.612782 57.910460 11.934426 178.156272 -50.150871 -4.079796 3.472474 22.611578 2.979712 1.808863 12.978634 1.513789 2.323291 16.163769 1.966884 1.799281 12.935814 1.508477 0.651102 14.036583 2.204108 0.370765 -9.781688 3.902858 2.627151 3.273293 -0.675703 -8.051040 -10.153267 -7.909126 -46.016255 -41.922050 104.426858 -3.066973 -0.524638 -15.882591 -9.404182 -0.800117 0.525488 7.139473 -10.086375 7.057943 32.023062 -11.384539 -88.019920 14.721012 -7.851337 12.255426 3.943752 -21.242989 -2.444871 -34.073511 73.707294 -37.856509 5.660784 -15.233102 11.357976 0.007726 0.011723 0.019189 -7.284281 -18.849439 5.770976 87.408391 81.011681 87.571135 1.011737 -21.589416 -18.714703 0.005692 -0.009176 0.006505
-43.612457 57.908308 11.934680 178.153044 -50.108756 -4.080214 3.476200 22.597176 2.983354 1.809725 12.973596 1.512455 2.323726 16.154580 1.968612 1.805516 12.949580 1.512168 0.669629 13.993117 2.218032 0.399367 -9.867484 3.924507 2.636408 3.251848 -0.681517 -8.045744 -10.143994 -7.910118 -46.056471 -41.929363 104.457524 -3.065680 -0.516621 -15.804126 -9.419130 -0.811271 0.522730 7.122253 -10.040581 7.069295 32.050031 -11.432791 -88.040252 14.542285 -7.751011 12.111681 3.948891 -21.284164 -2.446181 -34.071324 73.707715 -37.850640 5.654187 -15.238672 11.356358 -0.009232 0.012372 0.017471 -7.288643 -18.893046 5.777774 87.419070 81.013252 87.584595 1.012876 -21.588870 -18.715936 0.001570 -0.007089 0.004624
